# Blender v2.79 (sub 0) OBJ File: ''
# www.blender.org
mtllib stone_lvl_0.mtl
o Icosphere
v 0.000000 0.000753 0.000000
v 0.723607 -0.002616 0.525725
v -0.276388 0.029274 0.850649
v -0.894426 0.029275 0.000000
v -0.276388 0.029274 -0.850649
v 0.723607 -0.027299 -0.525725
v 0.276388 0.615726 0.477337
v -0.825302 0.799943 0.525725
v -0.723607 0.799943 -0.618123
v 0.276388 0.799943 -0.850649
v 0.569330 0.688212 0.000000
v 0.000000 1.297951 -0.224934
v -0.162456 0.009938 0.499995
v 0.425323 -0.008393 0.309011
v 0.262869 0.014808 0.809012
v 0.850648 -0.014493 0.000000
v 0.425323 -0.045056 -0.309011
v -0.525730 0.016048 0.000000
v -0.688189 0.014808 0.499997
v -0.162456 -0.045056 -0.499995
v -0.688189 0.014808 -0.499997
v 0.262869 0.014808 -0.809012
v 0.951058 0.352723 0.309013
v 0.951058 0.352723 -0.309013
v 0.000000 0.352723 1.000000
v 0.587786 0.352723 0.809017
v -0.951058 0.352723 0.309013
v -0.689480 0.352723 0.809017
v -0.587786 0.352723 -0.901414
v -0.951058 0.352723 -0.309013
v 0.587786 0.352723 -0.809017
v 0.000000 0.352723 -1.000000
v 0.688189 0.878459 0.499997
v -0.262869 0.878461 0.809012
v -0.850648 0.878459 0.000000
v -0.262869 0.878461 -0.809012
v 0.688189 0.878459 -0.499997
v 0.162456 1.203377 0.499995
v 0.525730 1.203375 0.000000
v -0.425323 1.203377 0.309011
v -0.425323 1.203377 -0.309011
v 0.162456 1.203377 -0.499995
vt 0.206756 0.201703
vt 0.197143 0.326205
vt 0.322194 0.249318
vt 0.190402 0.413520
vt 0.075764 0.355538
vt 0.287714 0.106628
vt 0.141351 0.095329
vt 0.085377 0.231035
vt 0.403658 0.608189
vt 0.469335 0.501945
vt 0.502478 0.611017
vt 0.914125 0.520973
vt 0.915980 0.649092
vt 0.836494 0.585669
vt 0.121474 0.778287
vt 0.019308 0.838936
vt 0.100581 0.882465
vt 0.099245 0.436734
vt 0.001372 0.437122
vt 0.028339 0.516392
vt 0.336062 0.414026
vt 0.227099 0.428296
vt 0.307352 0.505482
vt 0.437765 0.710600
vt 0.838515 0.421913
vt 0.224590 0.803911
vt 0.167845 0.510937
vt 0.534826 0.395581
vt 0.647179 0.388343
vt 0.582466 0.487927
vt 0.879479 0.142019
vt 0.774970 0.192414
vt 0.774972 0.045616
vt 0.774465 0.314195
vt 0.644268 0.387838
vt 0.677091 0.267355
vt 0.343459 0.854359
vt 0.229409 0.948680
vt 0.332713 0.974599
vt 0.237595 0.614517
vt 0.110335 0.638157
vt 0.214298 0.711327
vt 0.609289 0.592892
vt 0.711892 0.517933
vt 0.711892 0.659567
vt 0.447921 0.204920
vt 0.528388 0.082142
vt 0.570077 0.145542
vt 0.403658 0.088155
vt 0.497347 0.000253
vt 0.670022 0.120730
vt 0.625761 0.003963
vt 0.737255 0.043981
vt 0.774465 0.189177
vt 0.539826 0.319389
vt 0.893733 0.000253
vt 0.415096 0.325402
vt 0.582468 0.717098
vt 0.336062 0.629330
vt 0.000253 0.623797
vt 0.113940 0.999747
vt 0.712398 0.521694
vt 0.732695 0.388343
vt 0.866128 0.238284
vt 0.866128 0.377261
vt 0.774970 0.334939
vt 0.893733 0.237779
vt 0.343459 0.728614
vt 0.219962 0.711832
vt 0.000253 0.946018
vt 0.918768 0.423210
vt 0.505872 0.858038
vt 0.403658 0.752671
vt 0.505872 0.717603
vt 0.834771 0.725271
vt 0.918768 0.758572
vt 0.506377 0.809966
vt 0.620475 0.717603
vt 0.620475 0.834258
vt 0.019971 0.124661
vt 0.000253 0.251607
vt 0.095482 0.020728
vt 0.222309 0.000253
vt 0.344490 0.039951
vt 0.403153 0.154243
vt 0.403153 0.282712
vt 0.312582 0.373822
vn -0.0282 -0.9996 0.0092
vn 0.0025 -0.9997 0.0232
vn -0.0291 -0.9995 0.0089
vn -0.0289 -0.9945 0.1005
vn -0.0331 -0.9942 0.1018
vn 0.8770 -0.4263 0.2216
vn 0.0562 -0.4578 0.8873
vn -0.8265 -0.4578 0.3277
vn -0.5112 -0.5902 -0.6247
vn 0.4448 -0.4277 -0.7869
vn 0.7989 -0.1574 0.5805
vn -0.2609 -0.2120 0.9418
vn -0.9850 -0.1725 0.0000
vn -0.1578 -0.2996 -0.9409
vn 0.8002 -0.1474 -0.5814
vn -0.0270 -0.0437 0.9987
vn -0.3945 0.7066 0.5874
vn -0.6905 0.6861 -0.2291
vn 0.0385 0.6617 -0.7488
vn 0.9622 0.0814 0.2597
vn 0.2484 0.9517 -0.1805
vn 0.4911 0.7947 -0.3568
vn 0.4089 0.6617 -0.6284
vn -0.1262 0.9128 -0.3884
vn -0.1876 0.7947 -0.5773
vn -0.3664 0.7213 -0.5878
vn -0.2171 0.9762 0.0000
vn -0.6071 0.7947 0.0000
vn -0.6639 0.7343 0.1417
vn -0.0452 0.9892 0.1392
vn -0.1876 0.7947 0.5773
vn 0.5484 0.0742 0.8329
vn 0.1353 0.9859 0.0983
vn 0.4911 0.7947 0.3568
vn 0.9622 0.0814 -0.2597
vn 0.7648 0.5204 0.3798
vn 0.7947 0.1876 -0.5773
vn 0.5746 0.3304 -0.7488
vn -0.0247 0.3304 -0.9435
vn -0.1595 0.2657 -0.9508
vn -0.4082 0.3968 -0.8221
vn -0.9225 0.3108 -0.2291
vn -0.9822 0.1876 0.0000
vn -0.9691 0.2330 0.0815
vn -0.4585 0.3720 0.8071
vn -0.2609 0.2117 0.9419
vn 0.6167 0.5223 0.5889
vn -0.3751 0.5219 0.7661
vn 0.7947 0.1876 0.5773
vn 0.7648 0.5204 -0.3798
vn 0.3066 0.1256 -0.9435
vn 0.2962 -0.2848 -0.9117
vn 0.0562 -0.4578 -0.8873
vn -0.8503 0.0721 -0.5214
vn -0.8001 -0.3451 -0.4906
vn -0.8265 -0.4578 -0.3277
vn -0.8858 0.0245 0.4634
vn -0.8148 -0.3929 0.4263
vn -0.5168 -0.5788 0.6308
vn 0.1664 0.8427 0.5120
vn 0.2962 -0.2848 0.9117
vn 0.4581 -0.4405 0.7721
vn 0.6601 0.7511 0.0000
vn 0.9646 -0.2638 0.0000
vn 0.8869 -0.4144 -0.2042
vn -0.0221 -0.9935 -0.1118
vn 0.0431 -0.9902 -0.1326
vn -0.0105 -0.9789 -0.2041
vn -0.1115 -0.9789 -0.1713
vn -0.1130 -0.9928 0.0392
vn -0.0358 -0.9993 0.0141
vn -0.0358 -0.9993 -0.0141
vn -0.0093 -0.9999 -0.0055
vn -0.0093 -0.9986 0.0521
vn 0.0655 -0.9978 0.0085
vn 0.0287 -0.9978 0.0592
vn -0.0644 -0.9962 0.0591
vn -0.0231 -0.9986 0.0476
vn -0.0180 -0.9990 0.0405
vn -0.0116 -0.9990 0.0426
usemtl Material.001
s off
f 1/1/1 14/2/1 13/3/1
f 2/4/2 14/2/2 16/5/2
f 1/1/3 13/3/3 18/6/3
f 1/1/4 18/6/4 20/7/4
f 1/1/5 20/7/5 17/8/5
f 2/9/6 16/10/6 23/11/6
f 3/12/7 15/13/7 25/14/7
f 4/15/8 19/16/8 27/17/8
f 5/18/9 21/19/9 29/20/9
f 6/21/10 22/22/10 31/23/10
f 2/9/11 23/11/11 26/24/11
f 3/12/12 25/14/12 28/25/12
f 4/15/13 27/17/13 30/26/13
f 5/18/14 29/20/14 32/27/14
f 6/28/15 31/29/15 24/30/15
f 7/31/16 33/32/16 38/33/16
f 8/34/17 34/35/17 40/36/17
f 9/37/18 35/38/18 41/39/18
f 10/40/19 36/41/19 42/42/19
f 11/43/20 37/44/20 39/45/20
f 39/46/21 42/47/21 12/48/21
f 39/46/22 37/49/22 42/47/22
f 37/49/23 10/50/23 42/47/23
f 42/47/24 41/51/24 12/48/24
f 42/47/25 36/52/25 41/51/25
f 36/52/26 9/53/26 41/51/26
f 41/51/27 40/36/27 12/48/27
f 41/51/28 35/54/28 40/36/28
f 35/54/29 8/34/29 40/36/29
f 40/36/30 38/55/30 12/48/30
f 40/36/31 34/35/31 38/55/31
f 34/56/32 7/31/32 38/33/32
f 38/55/33 39/46/33 12/48/33
f 38/55/34 33/57/34 39/46/34
f 33/58/35 11/43/35 39/45/35
f 24/30/36 37/44/36 11/43/36
f 24/30/37 31/29/37 37/44/37
f 31/23/38 10/40/38 37/59/38
f 32/27/39 36/41/39 10/40/39
f 32/27/40 29/20/40 36/41/40
f 29/20/41 9/60/41 36/41/41
f 30/26/42 35/38/42 9/37/42
f 30/26/43 27/17/43 35/38/43
f 27/17/44 8/61/44 35/38/44
f 28/25/45 34/62/45 8/63/45
f 28/25/46 25/14/46 34/62/46
f 25/64/47 7/65/47 34/66/47
f 26/67/48 33/32/48 7/31/48
f 26/24/49 23/11/49 33/58/49
f 23/11/50 11/43/50 33/58/50
f 31/23/51 32/27/51 10/40/51
f 31/23/52 22/22/52 32/27/52
f 22/22/53 5/18/53 32/27/53
f 29/68/54 30/26/54 9/37/54
f 29/68/55 21/69/55 30/26/55
f 21/69/56 4/15/56 30/26/56
f 27/17/57 28/70/57 8/61/57
f 27/17/58 19/16/58 28/70/58
f 19/71/59 3/12/59 28/25/59
f 25/72/60 26/73/60 7/74/60
f 25/14/61 15/13/61 26/75/61
f 15/13/62 2/76/62 26/75/62
f 23/77/63 24/78/63 11/79/63
f 23/11/64 16/10/64 24/30/64
f 16/10/65 6/28/65 24/30/65
f 17/8/66 22/80/66 6/81/66
f 17/8/67 20/7/67 22/80/67
f 20/7/68 5/82/68 22/80/68
f 20/7/69 21/83/69 5/82/69
f 20/7/70 18/6/70 21/83/70
f 18/6/71 4/84/71 21/83/71
f 18/6/72 19/85/72 4/84/72
f 18/6/73 13/3/73 19/85/73
f 13/3/74 3/86/74 19/85/74
f 16/5/75 17/8/75 6/81/75
f 16/5/76 14/2/76 17/8/76
f 14/2/77 1/1/77 17/8/77
f 13/3/78 15/87/78 3/86/78
f 13/3/79 14/2/79 15/87/79
f 14/2/80 2/4/80 15/87/80
